<?xml version="1.0" encoding="UTF-8" standalone="no"?>
<svg
   xmlns:dc="http://purl.org/dc/elements/1.1/"
   xmlns:cc="http://creativecommons.org/ns#"
   xmlns:rdf="http://www.w3.org/1999/02/22-rdf-syntax-ns#"
   xmlns:svg="http://www.w3.org/2000/svg"
   xmlns="http://www.w3.org/2000/svg"
   xmlns:sodipodi="http://sodipodi.sourceforge.net/DTD/sodipodi-0.dtd"
   xmlns:inkscape="http://www.inkscape.org/namespaces/inkscape"
   version="1.1"
   x="0px"
   y="0px"
   viewBox="0 0 100 100"
   xml:space="preserve"
   id="svg2"
   inkscape:version="0.91 r13725"
   sodipodi:docname="racer.svg"
   width="100"
   height="100"><metadata
     id="metadata16"><rdf:RDF><cc:Work
         rdf:about=""><dc:format>image/svg+xml</dc:format><dc:type
           rdf:resource="http://purl.org/dc/dcmitype/StillImage" /><dc:title></dc:title></cc:Work></rdf:RDF></metadata><defs
     id="defs14" /><sodipodi:namedview
     pagecolor="#ffffff"
     bordercolor="#666666"
     borderopacity="1"
     objecttolerance="10"
     gridtolerance="10"
     guidetolerance="10"
     inkscape:pageopacity="0"
     inkscape:pageshadow="2"
     inkscape:window-width="1680"
     inkscape:window-height="997"
     id="namedview12"
     showgrid="false"
     fit-margin-top="0"
     fit-margin-left="0"
     fit-margin-right="0"
     fit-margin-bottom="0"
     inkscape:zoom="3.9333333"
     inkscape:cx="37.457279"
     inkscape:cy="38.308201"
     inkscape:window-x="1280"
     inkscape:window-y="0"
     inkscape:window-maximized="1"
     inkscape:current-layer="svg2" /><g
     id="g4"
     transform="translate(2,2.0033122)"><path
       d="m 72.6,54.5 c -1.4,0 -2.7,0.2 -4,0.5 l -2.2,-6 -2.8,-7.2 3.5,0.2 c 1.4,0 2.9,0.1 4.1,0.1 0.2,0.3 0.8,1 0,2.2 -0.8,1.2 -3,1.8 -3.7,2 l 0.5,3.1 c 0.4,-0.1 4.2,-0.7 5.9,-3.3 0.7,-1 1,-3.1 0.8,-4 0.6,0 1,0 1.2,-0.1 1.3,-0.3 2.1,-1.7 1.6,-3 C 77,37.9 75.8,37.6 74.6,37.7 71.1,38 64.7,36.8 61.3,36.5 61.3,32.9 61.1,26.4 60.8,25 c 1,0.3 1.9,1.5 2.4,1.3 2.1,-0.9 7.8,-6 7,-10.5 -0.8,-4.3 -5.6,-5.3 -7.7,-5.2 -3.5,0 -9.3,1.6 -13.2,5 1.6,0.7 4.5,2.4 4,2.3 -9.8,-2.5 -19.9,-0.2 -24.6,6.8 -2.8,4.2 -2.4,9.8 -1.1,12.8 -0.3,0 -0.5,0.1 -0.6,0.3 -1,1.4 0.5,4.9 1.3,5.9 0.2,0.1 2.2,-0.4 3,-0.6 l 2.4,5 -4.3,7.5 C 27.5,54.8 25.5,54.4 23.4,54.4 14.9,54.5 8,61.3 8,69.8 c 0,8.5 6.9,15.5 15.4,15.5 7.5,0 13.9,-5.4 15.1,-12.6 1.5,0 2.9,0.1 3.9,0 0.9,1.5 2.6,2.4 4.4,2.4 2.3,0 4.3,-1.5 5,-3.6 0.1,0.1 0.3,0.1 0.4,0.2 0.9,-0.1 1.6,-0.2 2.2,-0.3 l 0,0 c 1,-0.1 1.9,-0.3 2.6,-0.4 0.5,8 7.2,14.4 15.3,14.4 C 81.1,85.3 88,78.3 88,69.8 88,61.3 81.1,54.5 72.6,54.5 Z m -7.2,1.6 c -4.3,2.3 -7.4,6.4 -8.1,11.4 -0.4,-0.1 -0.7,-0.1 -0.9,-0.1 -1.2,0 -2.1,-1.6 -2.7,-2.4 l 10.2,-13 1.5,4.1 z m -26.6,-5.3 4.1,0 c -0.7,1 -1.6,2.2 -2.5,3.4 l -1.6,-3.4 z m -3.1,-8 c 3.4,1.7 6.9,3.4 8.6,4.6 L 37,47.3 34.8,42.7 c 0.2,0.1 0.5,0.1 0.9,0.1 z m 17.8,17.1 c 0.7,-3.4 1.7,-6.4 2.5,-9.1 l 4.6,0 -7.1,9.1 z m 0.2,-29.8 c 1.6,3.5 1.4,8.9 3.5,10.7 0.5,0.4 2.5,0.6 2.5,0.6 l 2.4,5.9 -5.2,0 C 57,46.7 57.1,46.1 57.1,45.5 55.9,41.6 44.8,34.2 40.6,31.6 c 2.1,-0.6 6,0.3 13.1,-1.5 z M 35.5,52 l 2.6,5.5 c -0.8,1.1 -1.6,2.3 -2.2,3.3 -1,-1.3 -2.1,-2.5 -3.5,-3.4 L 35.5,52 Z m 7.1,15 c -0.3,0.3 -0.5,0.8 -0.6,1.3 l -2.7,0 c -0.9,-1.9 -1.4,-3.5 -1.2,-4 0.1,0 1,-0.9 2.2,-2.1 l 2.3,4.8 z m -12,-6.4 c 1.2,0.9 2.2,2 3,3.3 -1,1 -2.2,2.2 -2.1,2.6 0.1,0.6 0.6,1 1.5,1.7 l -6.4,-0.1 c 0,-0.1 -0.1,-0.2 -0.1,-0.2 l 4.1,-7.3 z m -7.2,20.9 c -6.4,0 -11.7,-5.2 -11.7,-11.7 0,-6.5 5.3,-11.5 11.7,-11.5 1.5,0 2.8,0.3 4.1,0.8 l -4.2,7.2 c -1.9,0.1 -3.4,1.6 -3.4,3.5 0,1.9 1.6,3.5 3.5,3.5 1.3,0 2.5,-0.8 3.1,-1.9 l 8.4,0 C 34.1,77.1 29.3,81.5 23.4,81.5 Z M 43,59.6 c 3,-3 6.4,-6.4 6.7,-6.7 0.4,1 -0.3,8.8 -0.5,11.8 0,0 -0.1,0.1 -0.1,0.3 -0.6,-0.3 -1.3,-0.4 -2,-0.4 -0.6,0 -1.1,0.1 -1.6,0.2 L 43,59.6 Z m 29.6,21.9 c -6.4,0 -11.7,-5.2 -11.7,-11.7 0,-4.3 2.4,-8.1 5.9,-10.1 l 3,8 c -0.5,0.6 -0.7,1.3 -0.7,2.1 0,1.9 1.6,3.5 3.5,3.5 1.9,0 3.5,-1.6 3.5,-3.5 0,-1.8 -1.4,-3.3 -3.2,-3.5 L 70,58.5 c 0.8,-0.2 1.7,-0.3 2.6,-0.3 6.4,0 11.7,5.2 11.7,11.7 0,6.5 -5.3,11.6 -11.7,11.6 z"
       id="path6"
       inkscape:connector-curvature="0" /></g></svg>