<?xml version="1.0" encoding="UTF-8" standalone="no"?>
<svg
   xmlns:dc="http://purl.org/dc/elements/1.1/"
   xmlns:cc="http://creativecommons.org/ns#"
   xmlns:rdf="http://www.w3.org/1999/02/22-rdf-syntax-ns#"
   xmlns:svg="http://www.w3.org/2000/svg"
   xmlns="http://www.w3.org/2000/svg"
   xmlns:sodipodi="http://sodipodi.sourceforge.net/DTD/sodipodi-0.dtd"
   xmlns:inkscape="http://www.inkscape.org/namespaces/inkscape"
   version="1.1"
   x="0px"
   y="0px"
   viewBox="0 0 100 100"
   xml:space="preserve"
   id="svg2"
   inkscape:version="0.91 r13725"
   sodipodi:docname="biketour.svg"
   width="100"
   height="100"><metadata
     id="metadata14"><rdf:RDF><cc:Work
         rdf:about=""><dc:format>image/svg+xml</dc:format><dc:type
           rdf:resource="http://purl.org/dc/dcmitype/StillImage" /><dc:title></dc:title></cc:Work></rdf:RDF></metadata><defs
     id="defs12" /><sodipodi:namedview
     pagecolor="#ffffff"
     bordercolor="#666666"
     borderopacity="1"
     objecttolerance="10"
     gridtolerance="10"
     guidetolerance="10"
     inkscape:pageopacity="0"
     inkscape:pageshadow="2"
     inkscape:window-width="1680"
     inkscape:window-height="997"
     id="namedview10"
     showgrid="false"
     fit-margin-top="0"
     fit-margin-left="0"
     fit-margin-right="0"
     fit-margin-bottom="0"
     inkscape:zoom="2.6700352"
     inkscape:cx="-13.142096"
     inkscape:cy="51.94113"
     inkscape:window-x="1280"
     inkscape:window-y="0"
     inkscape:window-maximized="1"
     inkscape:current-layer="svg2" /><path
     d="M 9.83571,66.79042 C 12.47296,58.605855 21.385041,53.967934 29.842425,56.696123 l 4.54698,-10.094297 -1.182215,-3.091947 -3.637584,0 0,-3.091947 0.727517,0 C 29.569606,31.414911 35.7535,26.776991 43.483367,21.320614 l 0,-0.545638 c -1.545974,-0.636577 -2.637249,-2.18255 -2.637249,-4.001343 0,-2.36443 1.909732,-4.365101 4.365101,-4.365101 2.36443,0 4.365102,1.909732 4.365102,4.365101 0,2.182551 -1.545974,3.910404 -3.637585,4.274162 l 0,0.545638 c 1.909732,7.093289 6.911411,12.004028 13.186244,15.914432 3.455705,0 7.184229,0.454698 8.457384,4.365101 l 4.365101,14.732217 c 7.275169,-1.455034 14.732215,2.45537 17.642285,9.184901 3.45571,7.820806 -0.0909,17.187586 -8.36645,20.552352 -8.00268,3.364763 -17.36946,-0.272819 -20.734226,-8.457384 -3.364766,-8.002686 0.272819,-17.369466 8.457384,-20.734231 L 67.764243,53.058538 53.395784,69.06391 c 0.09094,0.272819 0.09094,0.545638 0.09094,0.909396 0,2.637249 -2.182551,4.819799 -4.8198,4.819799 -0.09094,0 -0.272818,0 -0.363758,0 l -1.545973,2.910068 1.727852,0.727517 -1.000336,1.909732 -5.274497,-2.637249 1.000336,-1.909732 1.727852,1.000336 1.091276,-1.909732 -5.729196,0 C 38.390748,84.068946 28.933029,89.616259 20.020947,86.706195 11.836383,84.159885 7.198462,75.247803 9.83571,66.79042 Z m 54.01813,10.185236 c 2.910067,6.274833 10.367115,9.184901 16.64195,6.274833 6.27483,-2.910067 9.1849,-10.367115 6.27483,-16.641949 -2.45537,-5.274497 -8.002684,-8.184565 -13.73188,-7.275169 l 3.819464,12.094969 c 0.727517,1.909732 -2.45537,2.910067 -2.910068,1.000336 l -3.637584,-11.82215 c -6.456712,2.637249 -9.27584,10.094297 -6.456712,16.36913 z m -16.823829,-27.281883 -4.092282,0 c 1.364094,4.092282 3.001007,9.1849 4.819799,15.550673 0.272819,-0.09094 0.636578,-0.09094 0.909396,-0.09094 0.636578,0 1.182215,0.09094 1.727853,0.363758 l 1.091275,-2.27349 -1.455033,-1.000336 0.09094,-0.181879 -0.09094,0 -3.001008,-12.367787 z m -6.183893,-6.002015 c 0.363758,0.909396 0.727517,1.909732 1.091275,3.091947 l 2.091611,0 -3.182886,-3.091947 z m 12.640606,20.279534 -0.545638,1.091275 0.818457,-0.909396 -0.272819,-0.181879 z m -16.278191,-20.461413 -0.545637,0.181879 1.091275,2.910068 C 37.572292,45.510551 37.390413,44.510215 37.208533,43.509879 Z M 64.581356,42.691423 C 64.399477,42.145785 64.126658,41.782026 63.85384,41.418268 l -0.636578,0.545638 -2.819128,-1.545974 c -1.455033,0 -2.910067,0.09094 -3.910403,0.09094 l 0,-2.36443 -11.822149,-6.638592 c -1.182215,3.091947 -2.182551,4.8198 -0.727517,8.639263 l 5.729195,6.547652 16.187251,0 -1.273155,-4.001342 z m -13.550002,7.00235 3.001008,12.094968 1.273154,0.636577 11.458391,-12.731545 -15.732553,0 z m -10.276176,22.189265 3.091947,0 -7.911746,-21.00705 -3.091947,7.275169 c 4.72886,2.637248 7.911746,7.911746 7.911746,13.731881 z m -9.457719,-10.821814 -4.8198,10.821814 10.912754,0 C 37.572292,67.336057 35.207862,63.243775 31.297459,61.061224 Z M 21.203162,83.978006 c 6.547652,1.909732 14.459398,-2.18255 15.914432,-8.912082 l -13.004365,0 c -1.000335,0 -1.909731,-1.182215 -1.455033,-2.18255 l 5.820135,-13.004365 c -6.729532,-1.909732 -13.731882,1.909732 -15.641613,8.457384 -1.909732,6.547652 1.818792,13.640942 8.366444,15.641613 z"
     id="path4"
     inkscape:connector-curvature="0" /></svg>