<?xml version="1.0" encoding="UTF-8" standalone="no"?>
<svg
   xmlns:dc="http://purl.org/dc/elements/1.1/"
   xmlns:cc="http://creativecommons.org/ns#"
   xmlns:rdf="http://www.w3.org/1999/02/22-rdf-syntax-ns#"
   xmlns:svg="http://www.w3.org/2000/svg"
   xmlns="http://www.w3.org/2000/svg"
   xmlns:sodipodi="http://sodipodi.sourceforge.net/DTD/sodipodi-0.dtd"
   xmlns:inkscape="http://www.inkscape.org/namespaces/inkscape"
   version="1.1"
   x="0px"
   y="0px"
   viewBox="0 0 100 100"
   enable-background="new 0 0 100 100"
   xml:space="preserve"
   id="svg2"
   inkscape:version="0.91 r13725"
   sodipodi:docname="noun_forest_867264.svg"
   width="100"
   height="100"><metadata
     id="metadata28"><rdf:RDF><cc:Work
         rdf:about=""><dc:format>image/svg+xml</dc:format><dc:type
           rdf:resource="http://purl.org/dc/dcmitype/StillImage" /><dc:title></dc:title></cc:Work></rdf:RDF></metadata><defs
     id="defs26" /><sodipodi:namedview
     pagecolor="#ffffff"
     bordercolor="#666666"
     borderopacity="1"
     objecttolerance="10"
     gridtolerance="10"
     guidetolerance="10"
     inkscape:pageopacity="0"
     inkscape:pageshadow="2"
     inkscape:window-width="1280"
     inkscape:window-height="998"
     id="namedview24"
     showgrid="false"
     inkscape:zoom="1.888"
     inkscape:cx="51.059322"
     inkscape:cy="62.5"
     inkscape:window-x="0"
     inkscape:window-y="0"
     inkscape:window-maximized="1"
     inkscape:current-layer="svg2" /><g
     id="g4"><g
       id="g6"><polygon
         points="43.106,31.413 44.277,31.413 44.435,31.142 42.062,27.032 43.094,27.032 40.122,21.887 37.152,27.032 38.184,27.032 37.207,28.724 41.519,36.191 41.93,35.479 43.692,32.428 "
         id="polygon8" /><polygon
         points="31.96,23.985 27.328,15.963 22.696,23.985 24.305,23.985 23.032,26.189 28.395,35.478 32.69,28.036 30.352,23.985 "
         id="polygon10" /><polygon
         points="26.057,39.526 24.387,36.635 26.754,36.635 19.937,24.826 13.118,36.635 15.485,36.635 9.68,46.69 13.088,46.69 6.66,57.823 17.68,57.823 17.68,65.797 17.864,65.797 23.018,56.871 18.901,56.871 25.912,44.728 23.054,44.728 "
         id="polygon12" /><polygon
         points="43.589,44.728 44.685,46.625 50.952,46.625 50.952,53.201 59.927,37.657 59.785,37.41 56.09,37.41 59.491,31.519 57.063,27.316 59.22,27.316 53.008,16.556 46.795,27.316 48.953,27.316 43.662,36.479 46.768,36.479 44.227,40.881 46.448,44.728 "
         id="polygon14" /><polygon
         points="34.751,28.469 26.518,42.728 29.376,42.728 22.365,54.871 26.482,54.871 18.72,68.314 32.026,68.314 32.026,77.943 37.476,77.943 37.476,68.314 47.958,68.314 49.37,65.869 43.02,54.871 47.136,54.871 40.125,42.728 42.983,42.728 "
         id="polygon16" /><polygon
         points="71.018,15.556 59.554,35.41 63.533,35.41 53.771,52.318 59.504,52.318 48.695,71.038 67.224,71.038 67.224,84.444 74.811,84.444 74.811,71.038 93.34,71.038 82.53,52.318 88.261,52.318 78.501,35.41 82.48,35.41 "
         id="polygon18" /></g></g></svg>