<?xml version="1.0" encoding="UTF-8" standalone="no"?>
<svg
   xmlns:dc="http://purl.org/dc/elements/1.1/"
   xmlns:cc="http://creativecommons.org/ns#"
   xmlns:rdf="http://www.w3.org/1999/02/22-rdf-syntax-ns#"
   xmlns:svg="http://www.w3.org/2000/svg"
   xmlns="http://www.w3.org/2000/svg"
   xmlns:sodipodi="http://sodipodi.sourceforge.net/DTD/sodipodi-0.dtd"
   xmlns:inkscape="http://www.inkscape.org/namespaces/inkscape"
   version="1.1"
   x="0px"
   y="0px"
   viewBox="0 0 99.999996 100"
   enable-background="new 0 0 50.4 50.4"
   xml:space="preserve"
   id="svg2"
   inkscape:version="0.91 r13725"
   sodipodi:docname="hiking.svg"
   width="100"
   height="100"><metadata
     id="metadata20"><rdf:RDF><cc:Work
         rdf:about=""><dc:format>image/svg+xml</dc:format><dc:type
           rdf:resource="http://purl.org/dc/dcmitype/StillImage" /><dc:title></dc:title></cc:Work></rdf:RDF></metadata><defs
     id="defs18" /><sodipodi:namedview
     pagecolor="#ffffff"
     bordercolor="#666666"
     borderopacity="1"
     objecttolerance="10"
     gridtolerance="10"
     guidetolerance="10"
     inkscape:pageopacity="0"
     inkscape:pageshadow="2"
     inkscape:window-width="1680"
     inkscape:window-height="997"
     id="namedview16"
     showgrid="false"
     fit-margin-top="0"
     fit-margin-left="0"
     fit-margin-right="0"
     fit-margin-bottom="0"
     inkscape:zoom="3.7460317"
     inkscape:cx="67.696212"
     inkscape:cy="47.460284"
     inkscape:window-x="1280"
     inkscape:window-y="0"
     inkscape:window-maximized="1"
     inkscape:current-layer="svg2" /><g
     id="g4"
     transform="matrix(1.4778326,0,0,1.4778326,11.463352,12.668471)"><path
       d="m 36.07,4.201 c 0,2.253 -1.824,4.081 -4.08,4.081 -2.253,0 -4.078,-1.827 -4.078,-4.081 0,-2.253 1.825,-4.08 4.078,-4.08 2.256,0 4.08,1.827 4.08,4.08 z"
       id="path6"
       inkscape:connector-curvature="0" /><path
       d="M 22.404,7.265 C 22.429,5.086 20.681,3.299 18.5,3.274 16.575,3.252 14.958,4.612 14.588,6.432 l -4.001,15.644 c -0.048,0.18 -0.067,0.36 -0.074,0.538 -0.008,0.099 -0.017,0.197 -0.018,0.295 -0.023,2.182 1.725,3.969 3.906,3.995 1.629,0.016 3.229,-1.076 3.651,-2.357 0.101,-0.278 4.213,-16.27 4.224,-16.329 0.078,-0.307 0.125,-0.623 0.128,-0.953 z"
       id="path8"
       inkscape:connector-curvature="0" /><path
       d="m 40.625,21.374 -6.653,-2.37 -2.985,-8.194 c -0.741,-1.432 -1.934,-2.428 -3.34,-2.687 -3.299,-0.616 -4.451,3.15 -4.451,3.15 l -2.456,10.32 6.97,-4.065 -0.633,-1.368 c -0.138,-0.298 -0.008,-0.651 0.29,-0.786 0.296,-0.14 0.649,-0.01 0.787,0.289 l 0.832,1.794 c 10e-4,0.005 0.005,0.008 0.007,0.01 0.007,0.01 0.006,0.019 0.01,0.029 l 1.606,3.463 0.161,0.328 c 0.094,0.185 0.434,0.532 0.749,0.661 l 6.461,2.465 -4.126,7.094 -5.41,-5.08 1.083,-4.975 -1.316,-2.842 -7.852,4.58 -3.039,12.756 -6.431,10.062 c -0.238,0.335 -0.358,0.734 -0.358,1.211 -0.095,0.806 0.12,1.505 0.641,2.103 0.521,0.592 1.188,0.935 1.994,1.032 1.187,0.092 2.089,-0.383 2.705,-1.427 L 22.732,38.16 c 0.142,-0.288 0.331,-0.688 0.571,-1.217 l 1.364,-5.746 6.341,5.201 -7.496,12.885 c -0.206,0.354 -0.085,0.809 0.269,1.016 0.118,0.069 0.246,0.102 0.373,0.102 0.255,0 0.504,-0.134 0.642,-0.37 l 6.404,-11.01 -0.009,8.728 c 0.287,1.378 1.165,2.138 2.637,2.282 0.806,0.047 1.506,-0.189 2.1,-0.712 0.592,-0.527 0.912,-1.166 0.959,-1.923 0,-0.146 0,-0.355 0,-0.643 L 36.833,35.866 c 0,-0.86 -0.199,-1.718 -0.745,-2.263 l -1.12,-1.056 4.464,-7.679 c 1.186,0.071 2.038,-0.604 2.21,-1.775 0.115,-0.773 -0.401,-1.488 -1.017,-1.719 z"
       id="path10"
       inkscape:connector-curvature="0" /></g></svg>