<?xml version="1.0" encoding="UTF-8" standalone="no"?>
<svg
   xmlns:dc="http://purl.org/dc/elements/1.1/"
   xmlns:cc="http://creativecommons.org/ns#"
   xmlns:rdf="http://www.w3.org/1999/02/22-rdf-syntax-ns#"
   xmlns:svg="http://www.w3.org/2000/svg"
   xmlns="http://www.w3.org/2000/svg"
   xmlns:sodipodi="http://sodipodi.sourceforge.net/DTD/sodipodi-0.dtd"
   xmlns:inkscape="http://www.inkscape.org/namespaces/inkscape"
   version="1.1"
   x="0px"
   y="0px"
   viewBox="0 0 100 100"
   xml:space="preserve"
   id="svg2"
   inkscape:version="0.91 r13725"
   sodipodi:docname="noun_river_1639586.svg"
   width="100"
   height="100"><metadata
     id="metadata24"><rdf:RDF><cc:Work
         rdf:about=""><dc:format>image/svg+xml</dc:format><dc:type
           rdf:resource="http://purl.org/dc/dcmitype/StillImage" /><dc:title></dc:title></cc:Work></rdf:RDF></metadata><defs
     id="defs22" /><sodipodi:namedview
     pagecolor="#ffffff"
     bordercolor="#666666"
     borderopacity="1"
     objecttolerance="10"
     gridtolerance="10"
     guidetolerance="10"
     inkscape:pageopacity="0"
     inkscape:pageshadow="2"
     inkscape:window-width="1280"
     inkscape:window-height="998"
     id="namedview20"
     showgrid="false"
     inkscape:zoom="2.0747253"
     inkscape:cx="-11.375"
     inkscape:cy="56.875"
     inkscape:window-x="0"
     inkscape:window-y="0"
     inkscape:window-maximized="1"
     inkscape:current-layer="svg2" /><g
     id="g4"
     transform="translate(4.4281958,5.57365)"><g
       id="g6"><path
         d="m 81.4,22.7 c -2.5,0 -4.5,-0.7 -6.2,-2.1 -0.9,-0.7 -1.7,-1.5 -2.5,-2.3 -0.5,-0.5 -1.1,-1 -1.7,-1.4 -1.1,-0.8 -2.3,-0.9 -3.5,-0.1 -0.8,0.5 -1.5,1.1 -2.1,1.7 -0.7,0.7 -1.5,1.4 -2.3,2 -3.7,2.9 -8.3,2.9 -12,0 -0.8,-0.7 -1.6,-1.4 -2.3,-2.1 -0.6,-0.6 -1.2,-1.2 -2,-1.6 -1,-0.6 -2,-0.7 -3,-0.1 -0.9,0.5 -1.7,1.2 -2.4,1.9 -0.8,0.7 -1.5,1.4 -2.3,2 -3.7,2.8 -8.3,2.8 -11.9,-0.2 C 26.4,19.7 25.6,19 24.9,18.3 24.4,17.8 23.8,17.3 23.2,16.8 22,16 20.9,16 19.8,16.7 c -1,0.6 -1.8,1.4 -2.7,2.2 -1.1,1 -2.2,2 -3.5,2.7 C 10.1,23.3 6.7,23 3.6,20.7 2.6,20 1.8,19.2 1,18.4 c -1,-1 -1.1,-2.6 -0.1,-3.6 1,-1 2.5,-1 3.6,0 0.6,0.6 1.2,1.1 1.8,1.7 1.6,1.5 4,1.6 5.8,0.1 1,-0.8 1.9,-1.7 2.8,-2.5 1.1,-1 2.2,-1.8 3.6,-2.3 2.4,-0.9 4.6,-0.7 6.8,0.6 1.1,0.6 2.1,1.4 3,2.3 0.6,0.6 1.2,1.2 1.9,1.7 1.8,1.7 4.3,1.7 6.2,-0.1 1,-0.9 1.9,-1.8 2.9,-2.6 1.4,-1.2 2.9,-2.1 4.8,-2.4 2.1,-0.4 4,0.2 5.8,1.4 0.9,0.6 1.7,1.2 2.4,2 0.8,0.7 1.5,1.5 2.4,2.2 1.3,1 3.4,1.1 4.7,0.2 1.2,-0.8 2.2,-1.8 3.2,-2.8 1.1,-0.9 2.2,-1.8 3.5,-2.4 2.5,-1.1 4.9,-0.9 7.2,0.5 1,0.6 2,1.4 2.8,2.2 0.7,0.6 1.3,1.2 2,1.9 1.6,1.5 4.1,1.6 5.9,0 0.9,-0.7 1.7,-1.5 2.5,-2.3 1.1,-0.9 2.5,-0.9 3.5,0.1 0.8,0.8 1.1,2.3 0.3,3.2 -1.8,2 -3.7,3.8 -6.4,4.8 -0.9,0.2 -1.8,0.3 -2.5,0.4 z"
         id="path8"
         inkscape:connector-curvature="0" /><path
         d="m 80.4,59.1 c -1.5,0 -3.4,-0.6 -5.1,-2 -0.9,-0.7 -1.8,-1.5 -2.6,-2.4 -0.6,-0.6 -1.2,-1.1 -1.9,-1.6 -1,-0.7 -2,-0.8 -3.1,-0.2 -1,0.6 -1.9,1.4 -2.7,2.2 -1.2,1.1 -2.3,2.2 -3.7,2.8 -3.3,1.6 -6.6,1.3 -9.6,-0.8 -1.1,-0.7 -2,-1.6 -2.9,-2.5 -0.6,-0.6 -1.2,-1.1 -1.9,-1.6 -1,-0.7 -2,-0.8 -3.1,-0.2 -1,0.6 -1.9,1.4 -2.7,2.2 -1.4,1.3 -2.8,2.6 -4.7,3.3 -3.1,1.1 -6.1,0.7 -8.8,-1.3 -1,-0.7 -1.9,-1.6 -2.8,-2.5 -0.6,-0.6 -1.2,-1.1 -1.9,-1.6 -1,-0.6 -2,-0.7 -3,-0.1 -1.1,0.6 -1.9,1.4 -2.8,2.2 -1,1 -2.1,1.9 -3.3,2.6 -3.3,1.9 -7.3,1.6 -10.3,-0.8 -0.9,-0.7 -1.8,-1.5 -2.6,-2.4 -1,-1 -1,-2.5 0,-3.5 0.9,-1 2.5,-1 3.5,-0.1 0.7,0.6 1.3,1.3 2,1.8 1.6,1.4 3.5,1.5 5.3,0.3 1.1,-0.7 2,-1.7 2.9,-2.5 1.2,-1.1 2.5,-2 4,-2.6 2.4,-0.9 4.6,-0.7 6.7,0.6 1,0.6 2,1.4 2.9,2.2 0.7,0.6 1.3,1.3 2,1.9 1.9,1.6 4,1.6 5.9,0 0.8,-0.7 1.6,-1.5 2.5,-2.2 1.5,-1.3 3.2,-2.4 5.2,-2.9 1.9,-0.4 3.7,0 5.4,1 1.2,0.7 2.3,1.7 3.3,2.7 0.5,0.5 1,1 1.5,1.4 2,1.7 4.2,1.7 6.2,-0.1 1,-0.9 2,-1.8 3,-2.7 1.5,-1.2 3.1,-2.2 5.1,-2.4 1.7,-0.2 3.3,0.2 4.7,1 1.1,0.6 2.1,1.5 3,2.3 0.7,0.7 1.4,1.3 2.1,2 1.4,1.3 3.7,1.4 5.3,0.2 1.1,-0.8 2,-1.8 3,-2.6 1.3,-1.1 3.2,-0.8 3.9,0.7 0.5,1 0.3,2.2 -0.6,3 -0.7,1.4 -1.6,2.3 -2.7,3.1 -1.7,1.3 -3.7,2.1 -6.6,2.1 z"
         id="path10"
         inkscape:connector-curvature="0" /><path
         d="m 81.1,40.9 c -2.2,0 -4.2,-0.7 -5.9,-2.1 -0.8,-0.7 -1.6,-1.4 -2.4,-2.2 -0.6,-0.6 -1.3,-1.2 -2,-1.6 -0.9,-0.6 -1.9,-0.6 -2.9,-0.1 -1,0.6 -1.9,1.4 -2.8,2.2 -1.1,1.1 -2.3,2.1 -3.7,2.8 -3.4,1.7 -6.7,1.4 -9.9,-0.8 -1,-0.7 -1.9,-1.6 -2.8,-2.5 -0.6,-0.6 -1.2,-1.1 -1.9,-1.6 -1,-0.6 -1.9,-0.7 -2.9,-0.1 -0.7,0.4 -1.4,0.9 -2,1.4 -0.9,0.8 -1.8,1.7 -2.8,2.4 -3.7,2.9 -8.4,2.9 -12,0 -0.8,-0.7 -1.6,-1.4 -2.4,-2.2 -0.6,-0.6 -1.2,-1.1 -1.9,-1.6 -0.9,-0.6 -1.9,-0.6 -2.8,-0.1 -0.8,0.4 -1.5,1 -2.2,1.6 -0.9,0.8 -1.7,1.6 -2.6,2.3 -3.6,2.9 -8.7,2.7 -12,-0.1 C 2.5,38 1.7,37.3 1,36.5 0,35.5 0,33.9 1,33 c 1,-1 2.5,-1 3.5,-0.1 0.7,0.7 1.4,1.4 2.2,2 1.4,1.1 3.3,1.2 4.8,0.3 1.1,-0.7 2,-1.7 3,-2.5 1.2,-1.1 2.5,-2.1 4,-2.7 2.4,-1 4.8,-0.8 7,0.6 1.2,0.7 2.2,1.6 3.2,2.6 0.6,0.6 1.1,1.1 1.8,1.6 1.6,1.4 3.5,1.5 5.3,0.3 1.1,-0.7 2,-1.7 2.9,-2.5 1.1,-1 2.4,-1.9 3.8,-2.5 2.4,-1 4.8,-0.8 7,0.6 1.6,1 2.9,2.4 4.3,3.7 0.7,0.7 1.5,1.3 2.5,1.5 1.6,0.3 2.9,-0.2 4,-1.3 0.8,-0.7 1.6,-1.4 2.3,-2.1 1.2,-1 2.4,-1.9 3.9,-2.5 2.3,-0.9 4.6,-0.6 6.7,0.6 1.1,0.7 2.1,1.5 3,2.4 0.6,0.6 1.2,1.1 1.8,1.7 2,1.7 4.2,1.7 6.2,0 0.8,-0.7 1.5,-1.4 2.3,-2.1 1.1,-1 2.6,-1 3.6,0.1 1,1 0.9,2.5 -0.1,3.5 -1.4,1.3 -2.7,2.7 -4.4,3.6 -1.4,0.7 -2.9,1.1 -4.5,1.1 z"
         id="path12"
         inkscape:connector-curvature="0" /><path
         d="m 80.6,77.3 c -2.3,0.1 -4.5,-1.2 -6.4,-3 -1,-0.9 -1.9,-2 -3,-2.7 -1.3,-0.9 -2.3,-1 -3.6,-0.1 -1,0.6 -1.8,1.4 -2.6,2.2 -1.1,1.1 -2.3,2.1 -3.7,2.8 C 58,78 54.8,77.8 51.8,75.7 50.8,75 49.9,74.1 49,73.2 48.4,72.6 47.8,72.1 47.1,71.6 46,70.9 45,70.8 43.9,71.5 c -1,0.6 -1.8,1.4 -2.7,2.2 -1.1,1 -2.1,2 -3.4,2.7 -3.3,1.8 -7.2,1.5 -10.1,-0.8 -1,-0.8 -1.9,-1.7 -2.9,-2.6 -0.6,-0.5 -1.2,-1 -1.8,-1.4 -0.9,-0.5 -1.8,-0.6 -2.8,-0.1 -0.7,0.4 -1.4,0.9 -2,1.5 -1.5,1.3 -2.8,2.8 -4.7,3.7 C 10.2,78.2 7,78 4,75.9 2.9,75.2 2,74.2 1.1,73.3 c -1,-1 -1,-2.5 0,-3.5 1,-1 2.5,-1.1 3.5,-0.1 0.7,0.7 1.4,1.4 2.2,2 1.6,1.2 3.3,1.3 5,0.2 1,-0.6 1.8,-1.5 2.7,-2.3 1.3,-1.2 2.8,-2.3 4.5,-2.9 2.4,-0.9 4.6,-0.6 6.7,0.7 1,0.6 2,1.4 2.9,2.3 0.7,0.6 1.3,1.3 2,1.9 1.6,1.4 3.5,1.5 5.3,0.3 1.1,-0.7 1.9,-1.7 2.9,-2.5 1.2,-1.1 2.6,-2.1 4.1,-2.6 2.3,-0.9 4.5,-0.6 6.7,0.6 1.1,0.6 2,1.4 2.9,2.3 0.7,0.7 1.4,1.4 2.2,2 1.6,1.3 3.5,1.4 5.2,0.2 1.1,-0.7 1.9,-1.7 2.9,-2.5 1.2,-1 2.4,-1.9 3.8,-2.5 2.4,-1 4.8,-0.8 7,0.6 1.2,0.7 2.2,1.6 3.1,2.5 0.5,0.5 1,1 1.6,1.4 2,1.7 4.1,1.7 6.1,0 0.8,-0.7 1.6,-1.4 2.3,-2.1 1.5,-1.3 3.8,-0.7 4.2,1.2 0.2,0.8 0.1,1.6 -0.5,2.1 -1.5,1.5 -3,3 -4.9,4 -1.5,0.4 -2.9,0.7 -4.9,0.7 z"
         id="path14"
         inkscape:connector-curvature="0" /></g></g></svg>